<svg xmlns="http://www.w3.org/2000/svg" viewBox="0 0 1024 1024">
  <rect width="1024" height="1024" rx="224" fill="#08080c"/>
  <g transform="translate(512,512) scale(1.22) translate(-512,-512)">
  <g transform="translate(-1387.44,-1766.79) scale(2.9979)" fill="#ffffff">
    <g transform="translate(560.191392,853.499906)"><path d="M 8.121094 0 L 25.199219 0 C 27.71875 0 29.960938 -2.238281 29.960938 -4.761719 L 29.960938 -128.519531 C 29.960938 -131.039062 27.71875 -133.277344 25.199219 -133.277344 L 8.121094 -133.277344 C 5.601562 -133.277344 3.359375 -131.039062 3.359375 -128.519531 L 3.359375 -4.761719 C 3.359375 -2.238281 5.601562 0 8.121094 0 Z M 8.121094 -159.878906 L 25.199219 -159.878906 C 27.71875 -159.878906 29.960938 -162.117188 29.960938 -164.636719 L 29.960938 -182 C 29.960938 -184.519531 27.71875 -186.757812 25.199219 -186.757812 L 8.121094 -186.757812 C 5.601562 -186.757812 3.359375 -184.519531 3.359375 -182 L 3.359375 -164.636719 C 3.359375 -162.117188 5.601562 -159.878906 8.121094 -159.878906 Z M 8.121094 -159.878906 "/></g>
    <g transform="translate(593.511011,853.499906)"><path d="M 8.121094 -26.601562 L 25.199219 -26.601562 C 27.71875 -26.601562 29.960938 -24.359375 29.960938 -21.839844 L 29.960938 -4.761719 C 29.960938 -2.238281 32.199219 0 34.71875 0 L 105.277344 0 C 107.800781 0 110.039062 -2.238281 110.039062 -4.761719 L 110.039062 -101.917969 C 110.039062 -104.4375 107.800781 -106.679688 105.277344 -106.679688 L 88.199219 -106.679688 C 85.679688 -106.679688 83.4375 -108.917969 83.4375 -111.4375 L 83.4375 -128.519531 C 83.4375 -131.039062 81.199219 -133.277344 78.679688 -133.277344 L 8.121094 -133.277344 C 5.601562 -133.277344 3.359375 -131.039062 3.359375 -128.519531 L 3.359375 -111.4375 C 3.359375 -108.917969 5.601562 -106.679688 8.121094 -106.679688 L 78.679688 -106.679688 C 81.199219 -106.679688 83.4375 -104.4375 83.4375 -101.917969 L 83.4375 -84.839844 C 83.4375 -82.320312 81.199219 -80.078125 78.679688 -80.078125 L 8.121094 -80.078125 C 5.601562 -80.078125 3.359375 -77.839844 3.359375 -75.320312 L 3.359375 -31.359375 C 3.359375 -28.839844 5.601562 -26.601562 8.121094 -26.601562 Z M 29.960938 -31.359375 L 29.960938 -48.441406 C 29.960938 -50.960938 32.199219 -53.199219 34.71875 -53.199219 L 78.679688 -53.199219 C 81.199219 -53.199219 83.4375 -50.960938 83.4375 -48.441406 L 83.4375 -31.359375 C 83.4375 -28.839844 81.199219 -26.601562 78.679688 -26.601562 L 34.71875 -26.601562 C 32.199219 -26.601562 29.960938 -28.839844 29.960938 -31.359375 Z M 29.960938 -31.359375 "/></g>
  </g>
  </g>
</svg>